<svg xmlns="http://www.w3.org/2000/svg" width="48" height="48" viewBox="0 0 48 48" role="img" aria-label="Budowa domu">
  <rect width="48" height="48" rx="12" fill="#0c2642"/>
  <path fill="#184c70" d="M0 48h48V0L0 48Z" opacity=".72"/>
  <path fill="#ffffff" d="M12 25.4 24 14l12 11.4v13.1a1.5 1.5 0 0 1-1.5 1.5h-21a1.5 1.5 0 0 1-1.5-1.5V25.4Zm5 1.8V35h4.9v-7.2h4.2V35H31v-7.8l-7-6.6-7 6.6Z"/>
  <path fill="#5fb3dc" d="M10.5 25.8a1.7 1.7 0 0 0 2.4.1L24 15.4l11.1 10.5a1.7 1.7 0 0 0 2.3-2.5L25.2 11.9a1.7 1.7 0 0 0-2.4 0L10.6 23.4a1.7 1.7 0 0 0-.1 2.4Z"/>
</svg>
